<?xml version="1.0" standalone="no"?>
<!DOCTYPE svg PUBLIC "-//W3C//DTD SVG 20010904//EN"
 "http://www.w3.org/TR/2001/REC-SVG-20010904/DTD/svg10.dtd">
<svg version="1.0" xmlns="http://www.w3.org/2000/svg"
 width="1200.000000pt" height="1200.000000pt" viewBox="0 0 1200.000000 1200.000000"
 preserveAspectRatio="xMidYMid meet">

<g transform="translate(0.000000,1200.000000) scale(0.100000,-0.100000)"
fill="#000000" stroke="none">
<path d="M1810 5995 l0 -4255 4195 0 4195 0 0 4255 0 4255 -4195 0 -4195 0 0
-4255z m8150 0 l0 -4025 -3960 0 -3960 0 0 4025 0 4025 3960 0 3960 0 0 -4025z"/>
<path d="M3830 8270 l0 -60 188 -2 187 -3 5 -1625 c6 -1762 3 -1664 60 -1904
102 -428 347 -750 705 -929 295 -147 638 -211 1125 -211 357 1 579 28 814 99
506 153 783 481 875 1036 39 233 41 338 41 1960 l0 1579 185 0 185 0 0 60 0
60 -490 0 -490 0 0 -60 0 -60 218 -2 217 -3 0 -1630 c0 -1749 1 -1706 -52
-1945 -55 -250 -142 -425 -287 -578 -199 -210 -479 -309 -841 -297 -524 17
-808 253 -909 756 -39 193 -39 202 -43 1972 l-4 1727 221 0 220 0 0 60 0 60
-1065 0 -1065 0 0 -60z"/>
</g>
</svg>
